<svg width="22" height="20" viewBox="0 0 22 20" fill="none" xmlns="http://www.w3.org/2000/svg">
<path d="M21.59 10.59L13.2567 18.9233C13.1002 19.0798 12.888 19.1677 12.6667 19.1677C12.4454 19.1677 12.2332 19.0798 12.0767 18.9233C11.9202 18.7669 11.8323 18.5546 11.8323 18.3333C11.8323 18.112 11.9202 17.8998 12.0767 17.7433L18.9883 10.8333H1.00002C0.779003 10.8333 0.567041 10.7455 0.410761 10.5893C0.25448 10.433 0.166683 10.221 0.166683 10C0.166683 9.77898 0.25448 9.56702 0.410761 9.41074C0.567041 9.25446 0.779003 9.16666 1.00002 9.16666H18.9883L12.0767 2.25666C11.9202 2.10018 11.8323 1.88795 11.8323 1.66666C11.8323 1.44537 11.9202 1.23314 12.0767 1.07666C12.2332 0.920184 12.4454 0.832275 12.6667 0.832275C12.888 0.832275 13.1002 0.920184 13.2567 1.07666L21.59 9.41C21.6676 9.4874 21.7292 9.57936 21.7712 9.68061C21.8132 9.78185 21.8348 9.89038 21.8348 10C21.8348 10.1096 21.8132 10.2181 21.7712 10.3194C21.7292 10.4206 21.6676 10.5126 21.59 10.59Z" fill="white"/>
</svg>
